<svg xmlns="http://www.w3.org/2000/svg" viewBox="0 0 41.69 24.13"><defs><style>.cls-2{mix-blend-mode:multiply}.cls-5{fill:#f8bf3c}</style></defs><g style="isolation:isolate"><g id="Layer_2" data-name="Layer 2"><g id="OBJECTS"><path d="M17.73 15.07h21c3.86 0 3.87-6 0-6h-21c-3.86 0-3.87 6 0 6z" fill="#fc4a9d"/><path d="M2.9 15.07h14.83c3.86 0 3.87-6 0-6H2.9c-3.86 0-3.87 6 0 6z" fill="#51cfff"/><g class="cls-2"><path class="cls-5" d="M27.5 5.13l9.06 9.06c2.73 2.73 7-1.51 4.24-4.25L31.74.88c-2.73-2.73-7 1.51-4.24 4.25z"/></g><g class="cls-2"><path class="cls-5" d="M31.74 23.25l9.06-9.06c2.74-2.74-1.5-7-4.24-4.25L27.5 19c-2.74 2.73 1.51 7 4.24 4.24z"/></g></g></g></g></svg>
