<svg xmlns="http://www.w3.org/2000/svg" viewBox="0 0 91 91"><g data-name="Layer 2"><path d="M30.49 2.53l6 15.23a29.16 29.16 0 0 0-20.11 26.41L0 44.9A45.52 45.52 0 0 1 30.49 2.53z" fill="#d84774"/><path d="M28.39 69.11l-12 11.33A45.42 45.42 0 0 1 0 45.5v-.6l16.37-.73v1.33a29.11 29.11 0 0 0 12.02 23.61z" fill="#f24c88"/><path d="M38.09 73.7l-3 16.1a45.48 45.48 0 0 1-18.71-9.36l12-11.33a29 29 0 0 0 9.71 4.59z" fill="#00acb3"/><path d="M71.69 58.32l13.22 9.93A45.48 45.48 0 0 1 45.5 91a46.09 46.09 0 0 1-10.44-1.2l3-16.1a29.2 29.2 0 0 0 33.6-15.38z" fill="#16d8d8"/><path d="M85.66 24.1a45.54 45.54 0 0 1-.75 44.15l-13.22-9.93a29.21 29.21 0 0 0-1.91-29z" fill="#feca7a"/><path d="M85.66 24.1l-15.88 5.26a29.19 29.19 0 0 0-33.26-11.6l-6-15.23A45.57 45.57 0 0 1 85.66 24.1z" fill="#f79663"/></g></svg>
